<svg xmlns="http://www.w3.org/2000/svg" viewBox="0 0 115.1 10.21"><defs><style>.cls-1{fill:#0068b7;}.cls-2{fill:#231815;}</style></defs><g id="レイヤー_2" data-name="レイヤー 2"><g id="レイヤー_1-2" data-name="レイヤー 1"><path class="cls-1" d="M5.2,0A1.59,1.59,0,0,1,6.63,2.31,4.38,4.38,0,0,1,6.14,3a4.68,4.68,0,0,0-.89,2.72h-.1A4.61,4.61,0,0,0,4.26,3a4.16,4.16,0,0,1-.48-.71,1.46,1.46,0,0,1-.16-.69A1.59,1.59,0,0,1,5.2,0"/><path class="cls-1" d="M5.25,8.13c0-1.4.78-2.33,1.93-2.33.47,0,.58.16,1.19.16a1.59,1.59,0,1,0,0-3.18c-1.51,0-2.93,1.9-3.17,4.74C5,4.68,3.54,2.78,2,2.78A1.59,1.59,0,0,0,2,6c.61,0,.72-.16,1.19-.16,1.14,0,1.92.93,1.92,2.33Z"/><path class="cls-1" d="M5.25,10.21c0-.69.17-2.15,1.14-2.15a.81.81,0,0,1,.73.46c.1.22.14.28.25.51a1.59,1.59,0,0,0,3-.7,1.67,1.67,0,0,0-.81-1.4,3.28,3.28,0,0,0-1.67-.44c-1.24,0-2.67,1-2.72,3.24,0-2.28-1.47-3.24-2.71-3.24a3.23,3.23,0,0,0-1.67.44A1.66,1.66,0,0,0,0,8.33,1.6,1.6,0,0,0,3,9c.1-.23.15-.29.25-.51A.8.8,0,0,1,4,8.06c1,0,1.14,1.46,1.14,2.15Z"/><path class="cls-2" d="M63.72,9.71h-.81V4.49c0-.53,0-1.07-.06-1.52h.83l0,1,0,0a2.32,2.32,0,0,1,2.11-1.22c2.2,0,2.37,1.95,2.37,2.72V9.71h-.8V5.36a1.66,1.66,0,0,0-1.77-1.85c-1.34,0-1.94,1.11-1.94,2.32Z"/><path class="cls-2" d="M70.28,3V9.71h-.81V3ZM70.34,1H69.4V0h.94Z"/><path class="cls-2" d="M72.31,5.72,75.66,3h1.09L73.2,5.89,77,9.71h-1L72.31,6.06V9.71h-.8V0h.8Z"/><path class="cls-2" d="M78,5.72,81.33,3h1.1L78.88,5.89l3.75,3.82h-1L78,6.06V9.71h-.8V0H78Z"/><path class="cls-2" d="M88.34,6.34c0,1.78-1,3.58-3.14,3.58s-3.14-1.8-3.14-3.58,1-3.57,3.14-3.57S88.34,4.57,88.34,6.34ZM85.2,3.51c-1.63,0-2.27,1.58-2.27,2.83s.64,2.84,2.27,2.84,2.27-1.59,2.27-2.84S86.83,3.51,85.2,3.51Z"/><path class="cls-2" d="M91.92,4h0a2.32,2.32,0,0,1,2.11-1.22,2.38,2.38,0,0,1,2.38,2.72V9.71h-.81V5.36a1.67,1.67,0,0,0-1.78-1.85c-1.32,0-1.93,1.11-1.93,2.32V9.71h-.81V0h.81Z"/><path class="cls-2" d="M103.57,6.34c0,1.78-1,3.58-3.14,3.58s-3.14-1.8-3.14-3.58,1-3.57,3.14-3.57S103.57,4.57,103.57,6.34Zm-3.14-2.83c-1.62,0-2.27,1.58-2.27,2.83s.65,2.84,2.27,2.84,2.27-1.59,2.27-2.84S102.06,3.51,100.43,3.51Z"/><path class="cls-2" d="M104.79,3.71h-1.35V3h1.35V1.53l.8-.35V3h1.53v.74h-1.53V8.22a.84.84,0,0,0,.93,1,2.68,2.68,0,0,0,.7-.08v.69a3.26,3.26,0,0,1-.82.13c-1.71,0-1.61-1.09-1.61-2Z"/><path class="cls-2" d="M108.19,6.53c0,1.44.68,2.65,2.33,2.65a2,2,0,0,0,2-1.62h.84a2.82,2.82,0,0,1-3,2.36c-2,0-3-1.74-3-3.58s1-3.57,3-3.57c2.26,0,3.08,1.65,3.08,3.76Zm4.34-.74a2.16,2.16,0,0,0-2.19-2.28,2.24,2.24,0,0,0-2.13,2.28Z"/><path class="cls-2" d="M115.1,9.71h-.8V0h.8Z"/><path class="cls-2" d="M14.11,5.71,17.38,3h1L15,5.88l3.68,3.83h-1L14.11,6.05V9.71H13.3V0h.81Z"/><path class="cls-2" d="M19.55,7.82c0-1.69,2.4-1.47,3.54-1.52.08,1.42-.26,2.87-2,2.87A1.35,1.35,0,0,1,19.55,7.82Zm3.54-2.25A8.86,8.86,0,0,0,20,5.88a2.08,2.08,0,0,0,.89,4A2.55,2.55,0,0,0,23,8.81l0-.1h0l0,1H24c0-.46-.08-1-.06-1.52V5c0-1.55-.9-2.23-2.4-2.23A2.22,2.22,0,0,0,19,4.67h.86c.1-.92.8-1.17,1.65-1.17S23,3.85,23.09,5Z"/><path class="cls-2" d="M27,8.64h0L29,3h1l2,5.63h0L34,3h.89L32.33,9.71h-.77L29.49,3.88h0L27.35,9.71h-.82L24.06,3H25Z"/><path class="cls-2" d="M35.59,7.82c0-1.69,2.4-1.47,3.54-1.52.08,1.42-.25,2.87-2,2.87A1.35,1.35,0,0,1,35.59,7.82Zm3.54-2.25a8.86,8.86,0,0,0-3.05.31,2.08,2.08,0,0,0,.89,4,2.55,2.55,0,0,0,2.11-1.1l0-.1h0l0,1H40c0-.46-.08-1-.06-1.52V5c0-1.55-.9-2.23-2.4-2.23A2.22,2.22,0,0,0,35,4.67h.86c.1-.92.8-1.17,1.65-1.17s1.52.35,1.6,1.45Z"/><path class="cls-2" d="M43.47,2.76c1.28,0,2.36.44,2.46,1.87h-.87C45,3.78,44.23,3.5,43.39,3.5s-1.52.29-1.52,1.08c0,1,1.31.9,3.14,1.55A1.64,1.64,0,0,1,46.15,7.7c0,1.52-1.41,2.21-2.84,2.21-1.17,0-2.51-.55-2.54-2h.88c.06,1,1,1.31,1.86,1.31s1.77-.4,1.77-1.35S44.21,6.7,43.14,6.45,41,5.89,41,4.64,42.29,2.76,43.47,2.76Z"/><path class="cls-2" d="M47.7,7.82c0-1.69,2.39-1.47,3.53-1.52.08,1.42-.25,2.87-2,2.87A1.34,1.34,0,0,1,47.7,7.82Zm3.53-2.25a8.86,8.86,0,0,0-3,.31,2.08,2.08,0,0,0,.89,4,2.55,2.55,0,0,0,2.11-1.1l0-.1h0l0,1h.84c0-.46-.08-1-.07-1.52V5c0-1.55-.9-2.23-2.39-2.23a2.22,2.22,0,0,0-2.53,1.91H48c.11-.92.81-1.17,1.65-1.17s1.52.35,1.6,1.45Z"/><path class="cls-2" d="M54.08,5.71,57.35,3h1L55,5.88l3.68,3.83h-1L54.08,6.05V9.71h-.8V0h.8Z"/><path class="cls-2" d="M59.8,3V9.71H59V3ZM59.86,1h-.94V0h.94Z"/></g></g></svg>