<?xml version="1.0" encoding="UTF-8"?><svg id="a" xmlns="http://www.w3.org/2000/svg" viewBox="0 0 230 75"><defs><style>.b{stroke:#fff;}.b,.c,.d,.e{stroke-linecap:round;stroke-linejoin:round;}.b,.c,.f{fill:none;}.b,.e{stroke-width:6px;}.c,.d{stroke:#e6d2c7;stroke-width:2px;}.d,.e{fill:#f4f5f7;}.e{stroke:#f4f5f7;}</style></defs><path class="c" d="M124.4144,44.22386l14.60259,3.0008c3.2202,.6618,5.5316,3.4964,5.5316,6.784v15.1704"/><path class="c" d="M105.61918,44.22386l-14.6026,3.0008c-3.22019,.6618-5.5316,3.4964-5.5316,6.784v15.1704"/><polyline class="e" points="97.20278 69.17906 97.20278 45.93566 105.61918 44.22386 105.61918 60.62006 124.4144 60.62006 124.4144 44.22386 132.83078 46.03286 132.83078 69.17906"/><polyline class="c" points="97.20278 69.17906 97.20278 45.93566 105.61918 44.22386 105.61918 60.62006 124.4144 60.62006 124.4144 44.22386 132.83078 46.03286 132.83078 69.17906"/><path class="d" d="M129.3464,26.78446c0,2.1728-1.66281,3.9342-3.714,3.9342-1.676,7.2136-5.79481,12.3224-10.62081,12.3224-4.8264,0-8.9456-5.1092-10.6214-12.323-2.0512,0-3.714-1.7614-3.714-3.9342"/><path class="c" d="M101.16398,21.32606c0-7.997,6.1998-14.48,13.8478-14.48s13.84761,6.483,13.84761,14.48h0"/><polyline class="e" points="111.81158 15.09926 111.81158 4.54926 117.5634 4.54926 117.5634 15.09926"/><polyline class="c" points="111.81158 15.09926 111.81158 4.54926 117.5634 4.54926 117.5634 15.09926"/><line class="b" x1="96.61078" y1="23.67486" x2="133.42278" y2="23.67486"/><line class="c" x1="96.61078" y1="23.67486" x2="133.42278" y2="23.67486"/><rect class="f" width="230" height="75"/></svg>