<?xml version="1.0" encoding="UTF-8"?><svg id="a" xmlns="http://www.w3.org/2000/svg" viewBox="0 0 50 50"><defs><style>.b{fill:#e6d2c7;}.c{fill:none;}</style></defs><path class="b" d="M25.36567,.91045C11.83481,.91045,.86567,11.87959,.86567,25.41045s10.96914,24.5,24.5,24.5,24.5-10.96914,24.5-24.5S38.89645,.91045,25.36567,.91045Zm16.94739,37.27561c-1.20426-.63724-2.48748-1.20107-3.84005-1.68764,.87571-2.87189,1.4228-6.06832,1.55673-9.45463h6.49985c-.31817,4.1623-1.83668,7.99361-4.21653,11.14227ZM4.20167,27.04378h6.49985c.13401,3.38631,.68028,6.58274,1.55681,9.45463-1.35183,.48657-2.63587,1.04876-3.84086,1.68683-2.37903-3.14866-3.89754-6.97915-4.2158-11.14146Zm4.21653-14.40812c1.20426,.63806,2.4883,1.20025,3.84013,1.68601-.87571,2.87271-1.4228,6.06914-1.55681,9.45545H4.20167c.31825-4.1623,1.83676-7.9928,4.21653-11.14146Zm15.31413,.56146c-2.52497-.10364-4.97097-.43226-7.25674-.9929,1.86225-4.21016,4.5316-6.97597,7.25674-7.78063V13.19712Zm0,3.26585v7.31415H13.96982c.12756-3.13902,.62042-5.99417,1.37494-8.49603,2.64298,.6771,5.47101,1.07106,8.38757,1.18188Zm0,10.58081v7.31333c-2.91656,.11082-5.7446,.5056-8.38757,1.1827-.75452-2.50186-1.24738-5.35692-1.37494-8.49603h9.76252Zm0,10.57918v8.77435c-2.72513-.80466-5.39449-3.57047-7.25747-7.78144,2.2865-.56064,4.7325-.88919,7.25747-.9929Zm3.26667-.00082c2.52179,.10372,4.96778,.43545,7.25592,.99691-1.86306,4.20853-4.5316,6.97441-7.25592,7.77826v-8.77516Zm0-3.26585v-7.31251h9.76252c-.12764,3.14147-.62132,5.99817-1.37657,8.50166-2.64535-.67792-5.47257-1.07751-8.38594-1.18915Zm0-10.57918v-7.31333c2.91338-.11164,5.7406-.51123,8.38594-1.18833,.75525,2.50268,1.24893,5.36019,1.37657,8.50166h-9.76252Zm0-10.57918V4.42358c2.72432,.80385,5.39286,3.56973,7.25592,7.77744-2.28814,.56146-4.73413,.89319-7.25592,.9969Zm7.52787-6.94003c2.05677,.98727,3.92702,2.30006,5.55235,3.86479-.86215,.42107-1.77527,.79355-2.71958,1.13247-.79992-1.87899-1.75379-3.56173-2.83277-4.99726ZM13.3717,11.25516c-.94431-.33973-1.86143-.7074-2.72277-1.12929,1.62615-1.56637,3.49713-2.87989,5.55472-3.86798-1.07906,1.43554-2.03285,3.11828-2.83196,4.99726Zm-.00082,28.31057c.79993,1.87899,1.75371,3.56173,2.83277,4.99726-2.05759-.98808-3.92939-2.30243-5.55554-3.8688,.86215-.42107,1.77927-.78955,2.72277-1.12847Zm23.98877,0c.94431,.33892,1.85743,.7114,2.71958,1.13247-1.62533,1.56473-3.49558,2.87753-5.55235,3.86479,1.07898-1.43554,2.03285-3.11828,2.83277-4.99726Zm2.67009-15.78862c-.13393-3.38631-.68102-6.58356-1.55755-9.45545,1.35338-.48575,2.63587-1.04958,3.84013-1.68682,2.38058,3.14866,3.89909,6.97997,4.21727,11.14227h-6.49985Z"/><rect class="c" width="50" height="50"/></svg>