<?xml version="1.0" encoding="UTF-8"?><svg id="a" xmlns="http://www.w3.org/2000/svg" viewBox="0 0 50 50"><defs><style>.b{fill:#e6d2c7;}.c{fill:none;}</style></defs><path class="b" d="M21.85664,7.78031l-11.15964,9.06642H2.04377c-.95151,0-1.73065,.77914-1.73065,1.73065v13.84517c0,.95237,.77914,1.73065,1.73065,1.73065H10.697l11.15964,9.06642c1.47711,1.20081,2.68553,.62623,2.68553-1.27851V9.05969c0-1.90388-1.20842-2.47941-2.68553-1.27938ZM42.68185,3.52889c-.70394-.96509-2.05852-1.17545-3.02188-.47238-.96501,.70394-1.1771,2.05765-.47325,3.02266,7.81499,10.70924,7.81499,28.13321,0,38.84072-.70385,.96501-.49176,2.31881,.47325,3.02266,.38368,.28062,.83071,.41579,1.27263,.41579,.6676,0,1.32585-.30762,1.74925-.88817,8.8417-12.11366,8.8417-31.82589,0-43.94128Zm-7.51498,8.91603c-.70385-.96501-2.05765-1.17632-3.02266-.47238-.96509,.70472-1.17632,2.05765-.47238,3.02275,4.15502,5.69383,4.15502,15.31553,0,21.00935-.70394,.96423-.49271,2.31803,.47238,3.02188,.38446,.28062,.83149,.41665,1.27341,.41665,.66682,0,1.32593-.30849,1.74925-.88903,5.25364-7.19715,5.25364-18.91034,0-26.10922Z"/><rect class="c" width="50" height="50"/></svg>