<?xml version="1.0" encoding="UTF-8"?><svg id="a" xmlns="http://www.w3.org/2000/svg" viewBox="0 0 50 50"><defs><style>.b{fill:#e6d2c7;}.c{fill:none;}</style></defs><path class="b" d="M46.80317,30.0042h-6.125v-3.0625c0-1.68828-1.37353-3.0625-3.0625-3.0625h-10.71875v-3.0625h6.125c1.68897,0,3.0625-1.37422,3.0625-3.0625V8.5667c0-1.68897-1.37353-3.0625-3.0625-3.0625h-15.3125c-1.68828,0-3.0625,1.37353-3.0625,3.0625v9.1875c0,1.68828,1.37422,3.0625,3.0625,3.0625h6.125v3.0625H13.11567c-1.68828,0-3.0625,1.37422-3.0625,3.0625v3.0625H3.92817c-1.68828,0-3.0625,1.37422-3.0625,3.0625v9.1875c0,1.68828,1.37422,3.0625,3.0625,3.0625h15.3125c1.68828,0,3.0625-1.37422,3.0625-3.0625v-9.1875c0-1.68828-1.37422-3.0625-3.0625-3.0625h-6.125v-3.0625h24.5v3.0625h-6.125c-1.68905,0-3.0625,1.37422-3.0625,3.0625v9.1875c0,1.68828,1.37345,3.0625,3.0625,3.0625h15.3125c1.68897,0,3.0625-1.37422,3.0625-3.0625v-9.1875c0-1.68828-1.37353-3.0625-3.0625-3.0625ZM17.70942,8.5667h15.3125l-.00452,9.1875h-15.30798V8.5667Zm1.53125,33.6875v0h0Zm-.00452,0H3.92817v-9.1875h15.3125l-.00452,9.1875Zm27.5625,0h-15.30798v-9.1875h15.3125l-.00452,9.1875Z"/><rect class="c" width="50" height="50"/></svg>