<?xml version="1.0" encoding="UTF-8"?><svg id="a" xmlns="http://www.w3.org/2000/svg" viewBox="0 0 230 75"><defs><style>.b{fill:none;}.c{fill:#465faa;}</style></defs><rect class="b" width="230" height="75"/><g><path class="c" d="M.09709,19.55191H9.35315c2.50263,0,4.42893,.19647,5.77368,.58942,1.34649,.39295,2.35767,.96053,3.03529,1.70276,.67587,.74223,1.13518,1.6412,1.37444,2.69604,.24101,1.05528,.36151,2.68906,.36151,4.90091v3.07807c0,2.25594-.23402,3.90064-.69857,4.93365-.4663,1.03345-1.32204,1.82676-2.5655,2.3795-1.2452,.55318-2.87112,.82955-4.87951,.82955h-2.46595v14.23337H.09709V19.55191Zm9.19144,6.047v8.99409c.26196,.01484,.48725,.02183,.67587,.02183,.84352,0,1.43032-.20739,1.7569-.62216,.32833-.41478,.49249-1.27707,.49249-2.58689v-2.90343c0-1.20765-.19036-1.99354-.56759-2.35767-.37897-.36369-1.16487-.54576-2.35767-.54576Z"/><path class="c" d="M31.09614,25.92636l-.34929,3.80939c1.28013-2.72792,3.13658-4.17265,5.5676-4.33332v10.19476c-1.61544,0-2.80301,.2183-3.55921,.65491s-1.2225,1.04436-1.39714,1.82283c-.17464,.77891-.26196,2.57248-.26196,5.38117v11.43908h-8.81945V25.92636h8.81945Z"/><path class="c" d="M58.23209,36.09929v7.09485c0,2.60523-.13098,4.51538-.39295,5.73046-.26196,1.21551-.82257,2.35069-1.68181,3.40553-.85924,1.05528-1.96124,1.83375-3.30598,2.33584-1.34649,.5021-2.89383,.75315-4.64025,.75315-1.95076,0-3.60113-.21481-4.95461-.64399s-2.40483-1.07667-3.15404-1.9429c-.75096-.86579-1.28537-1.91365-1.60496-3.14357-.32134-1.22948-.48027-3.07414-.48027-5.53398v-7.42231c0-2.69211,.28991-4.79525,.87321-6.30896,.58156-1.51328,1.62941-2.72879,3.14357-3.64566,1.5124-.91687,3.44919-1.37531,5.80686-1.37531,1.9787,0,3.67797,.29471,5.09782,.88413,1.4181,.58942,2.51311,1.35741,3.28503,2.3031,.77017,.94613,1.29934,1.92107,1.58226,2.92526,.28467,1.00419,.42613,2.53232,.42613,4.58437Zm-8.81945-2.18303c0-1.48446-.08034-2.41924-.24101-2.8052-.16067-.38552-.50122-.5785-1.02515-.5785s-.87321,.19298-1.04786,.5785c-.17464,.38596-.26196,1.32073-.26196,2.8052v13.07636c0,1.36832,.08732,2.25944,.26196,2.67421s.5152,.62216,1.02515,.62216c.52393,0,.86972-.18905,1.03738-.56759,.16766-.3781,.25149-1.19324,.25149-2.445v-13.36015Z"/><path class="c" d="M72.37814,19.55191v4.47521c-1.81978,0-2.89383,.08383-3.22041,.25105-.32833,.16766-.49075,.64399-.49075,1.42989v.91687h3.71115v4.58437h-2.09571v23.68589h-8.81945V31.2093h-1.81279v-4.58437h1.81279c0-1.90622,.06462-3.1798,.1956-3.82031,.13098-.64006,.45582-1.21158,.97101-1.71368,.51694-.5021,1.24171-.88413,2.17255-1.14609s2.38038-.39295,4.34511-.39295h3.23089Z"/><path class="c" d="M94.03381,40.92379h-11.41813v6.2653c0,1.30982,.09431,2.15422,.28467,2.53232,.18861,.37854,.55187,.56759,1.09152,.56759,.66888,0,1.11597-.25105,1.34125-.75315,.22704-.5021,.33881-1.47355,.33881-2.91435v-3.82031h8.36188v2.13937c0,1.79009-.11352,3.1654-.33881,4.12593s-.75271,1.98656-1.58226,3.07807-1.8809,1.91015-3.15579,2.45591c-1.27314,.54576-2.86938,.81864-4.79044,.81864-1.86344,0-3.50857-.26939-4.93365-.80772-1.42683-.53834-2.53581-1.27707-3.33043-2.21578-.79288-.9387-1.34125-1.97171-1.64688-3.0999-.30562-1.12775-.45931-2.76852-.45931-4.92274v-8.44833c0-2.53232,.3423-4.52979,1.0269-5.99242,.68285-1.46263,1.80406-2.58296,3.36187-3.36187,1.55606-.77847,3.34615-1.16792,5.37026-1.16792,2.47294,0,4.51451,.46935,6.12297,1.40806s2.73665,2.18303,3.38283,3.73298c.64792,1.54995,.97276,3.72949,.97276,6.53818v3.84214Zm-8.84215-4.71535v-2.11754c0-1.49887-.08034-2.46683-.23926-2.90343-.16067-.43661-.489-.65491-.98324-.65491-.61125,0-.99022,.18556-1.13518,.55667s-.2183,1.37182-.2183,3.00167v2.11754h2.57598Z"/><path class="c" d="M114.92455,35.18242h-7.81525v-1.57178c0-1.33863-.0751-2.18652-.22878-2.54323-.15194-.35627-.53441-.53484-1.14565-.53484-.49598,0-.86623,.16373-1.11422,.49118s-.37024,.81864-.37024,1.47355c0,.88806,.06112,1.53904,.18512,1.95381s.49424,.86972,1.11422,1.36439c.61823,.49511,1.88789,1.21551,3.80895,2.1612,2.56026,1.25175,4.24207,2.43059,5.04193,3.53651,.79986,1.10636,1.20154,2.71438,1.20154,4.8245,0,2.35767-.30562,4.13684-.91687,5.33751s-1.63465,2.12496-3.06672,2.77245c-1.43382,.64749-3.16278,.97145-5.18514,.97145-2.24241,0-4.15824-.34929-5.75272-1.04786-1.59274-.69857-2.68949-1.64426-3.28503-2.83794-.59728-1.19324-.89592-2.99774-.89592-5.41392v-1.39714h7.81525v1.83375c0,1.55737,.09955,2.56899,.29515,3.03441,.19735,.46586,.58505,.69857,1.16836,.69857,.62522,0,1.06183-.15631,1.30982-.46935,.24625-.31261,.37024-.97145,.37024-1.97564,0-1.3823-.16067-2.24852-.48027-2.59781-.33531-.34929-2.04506-1.3823-5.12925-3.0999-2.59169-1.45521-4.17046-2.77594-4.73805-3.9622-.56759-1.18582-.85051-2.59388-.85051-4.22417,0-2.31401,.30562-4.02027,.91687-5.11921,.61125-1.0985,1.64863-1.94639,3.11038-2.54323,1.4635-.5964,3.16103-.89504,5.09782-.89504,1.92107,0,3.55398,.24406,4.90047,.73132,1.34649,.48769,2.38038,1.13168,3.0999,1.93198,.72127,.80074,1.15788,1.54297,1.30982,2.22669,.15369,.68416,.22878,1.75385,.22878,3.20906v1.68093Z"/><path class="c" d="M135.96897,35.18242h-7.81525v-1.57178c0-1.33863-.0751-2.18652-.22878-2.54323-.15194-.35627-.53441-.53484-1.14565-.53484-.49598,0-.86623,.16373-1.11422,.49118s-.37024,.81864-.37024,1.47355c0,.88806,.06112,1.53904,.18512,1.95381s.49424,.86972,1.11422,1.36439c.61823,.49511,1.88789,1.21551,3.80895,2.1612,2.56026,1.25175,4.24207,2.43059,5.04193,3.53651,.79986,1.10636,1.20154,2.71438,1.20154,4.8245,0,2.35767-.30562,4.13684-.91687,5.33751s-1.63465,2.12496-3.06672,2.77245c-1.43382,.64749-3.16278,.97145-5.18514,.97145-2.24241,0-4.15824-.34929-5.75272-1.04786-1.59274-.69857-2.68949-1.64426-3.28503-2.83794-.59728-1.19324-.89592-2.99774-.89592-5.41392v-1.39714h7.81525v1.83375c0,1.55737,.09955,2.56899,.29515,3.03441,.19735,.46586,.58505,.69857,1.16836,.69857,.62522,0,1.06183-.15631,1.30982-.46935,.24625-.31261,.37024-.97145,.37024-1.97564,0-1.3823-.16067-2.24852-.48027-2.59781-.33531-.34929-2.04506-1.3823-5.12925-3.0999-2.59169-1.45521-4.17046-2.77594-4.73805-3.9622-.56759-1.18582-.85051-2.59388-.85051-4.22417,0-2.31401,.30562-4.02027,.91687-5.11921,.61125-1.0985,1.64863-1.94639,3.11038-2.54323,1.4635-.5964,3.16103-.89504,5.09782-.89504,1.92107,0,3.55398,.24406,4.90047,.73132,1.34649,.48769,2.38038,1.13168,3.0999,1.93198,.72127,.80074,1.15788,1.54297,1.30982,2.22669,.15369,.68416,.22878,1.75385,.22878,3.20906v1.68093Z"/><path class="c" d="M148.08567,19.55191v4.6062h-9.08141v-4.6062h9.08141Zm0,6.37445v28.96883h-9.08141V25.92636h9.08141Z"/><path class="c" d="M171.2031,36.09929v7.09485c0,2.60523-.13098,4.51538-.39295,5.73046-.26196,1.21551-.82257,2.35069-1.68006,3.40553-.85924,1.05528-1.96124,1.83375-3.30773,2.33584s-2.89208,.75315-4.63851,.75315c-1.95076,0-3.60288-.21481-4.95635-.64399s-2.40483-1.07667-3.15404-1.9429c-.74922-.86579-1.28537-1.91365-1.60496-3.14357-.3196-1.22948-.48027-3.07414-.48027-5.53398v-7.42231c0-2.69211,.29165-4.79525,.87321-6.30896,.58156-1.51328,1.62941-2.72879,3.14357-3.64566s3.44919-1.37531,5.80686-1.37531c1.9787,0,3.67797,.29471,5.09782,.88413,1.4181,.58942,2.51311,1.35741,3.28503,2.3031,.77192,.94613,1.29934,1.92107,1.58226,2.92526,.28467,1.00419,.42613,2.53232,.42613,4.58437Zm-8.81945-2.18303c0-1.48446-.08034-2.41924-.23926-2.8052-.16067-.38552-.50297-.5785-1.0269-.5785s-.87321,.19298-1.04786,.5785c-.17464,.38596-.26196,1.32073-.26196,2.8052v13.07636c0,1.36832,.08732,2.25944,.26196,2.67421s.51694,.62216,1.0269,.62216c.52393,0,.86972-.18905,1.03563-.56759,.16766-.3781,.25149-1.19324,.25149-2.445v-13.36015Z"/><path class="c" d="M183.07879,25.92636l-.15194,2.66854c.63919-1.06401,1.42159-1.86213,2.3472-2.39435,.92386-.53222,1.98918-.79812,3.1977-.79812,1.5124,0,2.75062,.35671,3.71115,1.06969,.96053,.71341,1.57877,1.61195,1.8547,2.69604,.27594,1.08453,.41565,2.89252,.41565,5.42483v20.30219h-8.81945v-20.06206c0-1.99354-.06636-3.20906-.19735-3.64566s-.49424-.65491-1.09152-.65491c-.62522,0-1.01817,.25105-1.17884,.75315s-.23926,1.84466-.23926,4.02769v19.58179h-8.81945V25.92636h8.97139Z"/><path class="c" d="M205.36842,37.14714h-8.27456v-1.9429c0-2.2411,.25847-3.96919,.77541-5.1847,.51694-1.21508,1.55257-2.28825,3.11038-3.21997,1.55781-.93128,3.58017-1.39714,6.06883-1.39714,2.98289,0,5.23229,.52786,6.74644,1.5827,1.5124,1.05528,2.42229,2.35069,2.72792,3.8858,.30562,1.53554,.45931,4.69745,.45931,9.48527v14.53899h-8.58019v-2.58122c-.5379,1.03519-1.23298,1.81148-2.08523,2.32886-.85051,.51738-1.86518,.77629-3.04402,.77629-1.54384,0-2.95844-.43311-4.24731-1.2989-1.28712-.86579-1.93155-2.76153-1.93155-5.6868v-2.3795c0-2.16819,.3423-3.64566,1.0269-4.43155,.68285-.78589,2.37863-1.70276,5.08559-2.75062,2.89557-1.13518,4.4464-1.89924,4.65073-2.29218,.20259-.39295,.30562-1.19324,.30562-2.40133,0-1.51328-.11352-2.49957-.33881-2.95801s-.60077-.68765-1.1247-.68765c-.59728,0-.96752,.19298-1.11247,.5785-.1467,.38596-.2183,1.38622-.2183,3.00167v3.03441Zm2.79428,3.97312c-1.41286,1.03345-2.23018,1.89924-2.45722,2.59781-.22529,.69857-.33706,1.70276-.33706,3.01258,0,1.49931,.0978,2.46683,.2934,2.90343,.19735,.43661,.5868,.65491,1.16836,.65491,.55362,0,.91338-.17071,1.08104-.51301,.16766-.34186,.25149-1.2404,.25149-2.69604v-5.95968Z"/><path class="c" d="M229.09709,19.55191V54.89519h-9.08141V19.55191h9.08141Z"/></g></svg>