<?xml version="1.0" encoding="UTF-8"?><svg id="a" xmlns="http://www.w3.org/2000/svg" viewBox="0 0 45.16904 45.169"><defs><style>.b{fill:#415e4e;}</style></defs><path class="b" d="M33.52722,0H11.64184C5.22246,0,0,5.22262,0,11.64184v21.88552c0,6.41924,5.22246,11.64164,11.64184,11.64164h21.88538c6.41938,0,11.64182-5.2224,11.64182-11.64164V11.64184c0-6.41922-5.22244-11.64184-11.64182-11.64184Zm-12.31832,35.51912c-4.7352,.53756-8.26122-1.0685-10.80852-2.50936,0,0,5.05698,.45662,8.37068-1.47632-5.31402-1.16056-5.74154-6.10804-5.74154-6.10804,1.6492,.78536,3.81536,.72992,3.81536,.72992-5.34036-1.49214-4.91482-6.83792-4.91482-6.83792,.9424,1.64922,3.57972,2.0473,3.57972,2.0473-5.9686-3.69104-3.58434-10.29496-3.58434-10.29496,2.91098,4.4705,7.98286,7.11168,10.94416,7.29116,0,0-.28462-4.79324,3.70562-5.55332,3.99028-.76006,5.9003,1.92616,5.9003,1.92616l3.55432-.87604-2.85018,2.28014,3.42024-.38002-2.66016,1.90016s1.16058,16.28394-12.73084,17.86114Z"/></svg>