<?xml version="1.0" encoding="UTF-8"?><svg id="a" xmlns="http://www.w3.org/2000/svg" viewBox="0 0 230 75"><defs><style>.b{fill:none;}.c{fill:#465faa;}</style></defs><rect class="b" width="230" height="75"/><g><path class="c" d="M17.9878,1.48551h17.8941c5.65113,0,9.93548,.43968,12.84626,1.3199s5.26257,2.66111,7.05198,5.34352,2.68241,7.00341,2.68241,12.96385c0,4.03128-.63055,6.84066-1.89507,8.43068s-3.75606,2.81023-7.47803,3.66147c4.14802,.93816,6.95995,2.4941,8.43579,4.6678,1.47584,2.17456,2.21546,5.50712,2.21546,9.99684v6.39416c0,4.66099-.53171,8.11455-1.59854,10.35898-1.06342,2.24528-2.7608,3.77991-5.08874,4.6039-2.33135,.82398-7.1031,1.2364-14.31528,1.2364H17.9878V1.48551Zm17.93841,11.80158v15.3378c.76689-.02812,1.36336-.0426,1.78941-.0426,1.75873,0,2.8801-.43287,3.36409-1.29945,.48399-.86573,.72599-3.34449,.72599-7.43457,0-2.15837-.2011-3.67085-.59647-4.53743-.39878-.86573-.91686-1.41278-1.55764-1.64029-.63737-.22666-1.88144-.35447-3.72538-.38344Zm0,26.07425v19.30006c2.52562-.08521,4.1378-.48229,4.83311-1.19294,.69872-.7098,1.04638-2.4566,1.04638-5.24041v-6.43335c0-2.95338-.31357-4.74279-.93731-5.36823-.62715-.62459-2.2734-.97991-4.94218-1.06512Z"/><path class="c" d="M81.04318,35.82514h-16.14559v-3.79184c0-4.37383,.50444-7.74644,1.51333-10.11869,1.00548-2.37139,3.03007-4.46586,6.07036-6.28424,3.03688-1.81753,6.98722-2.72672,11.84419-2.72672,5.82155,0,10.20816,1.03019,13.16324,3.08886,2.95508,2.05953,4.73086,4.58771,5.32733,7.58369,.59647,2.99684,.893,9.16774,.893,18.51187v28.37492h-16.74206v-5.03761c-1.0532,2.02033-2.40633,3.53536-4.06963,4.5451-1.65989,1.00974-3.64358,1.51503-5.94425,1.51503-3.00962,0-5.77042-.84528-8.28582-2.535-2.51199-1.68971-3.76969-5.38953-3.76969-11.0986v-4.64394c0-4.23153,.66464-7.11503,2.00073-8.64881s4.64565-3.32319,9.92867-5.36823c5.65113-2.21546,8.67438-3.70663,9.07316-4.47352s.59647-2.32879,.59647-4.68655c0-2.95338-.21814-4.87827-.65782-5.77298-.44309-.8947-1.17249-1.34206-2.19501-1.34206-1.16567,0-1.89166,.37663-2.17456,1.12903-.2829,.75326-.42605,2.70542-.42605,5.85819v5.92209Zm5.45344,7.75411c-2.75399,2.01692-4.35253,3.70663-4.79221,5.06999s-.66123,3.32319-.66123,5.87949c0,2.92611,.19428,4.81436,.57602,5.66646,.38515,.8521,1.14181,1.27815,2.28022,1.27815,1.07705,0,1.78259-.33317,2.1098-1.00122,.3238-.66719,.4874-2.42082,.4874-5.26172v-11.63116Z"/><path class="c" d="M144.78025,31.99069h-15.25259v-3.06756c0-2.61254-.14656-4.26732-.4465-4.96348-.29653-.69531-1.04297-1.04382-2.23591-1.04382-.96799,0-1.69057,.31954-2.17456,.95861s-.72258,1.59769-.72258,2.87584c0,1.73317,.11929,3.00365,.36129,3.81315s.96458,1.69738,2.17456,2.66281c1.20657,.96628,3.68448,2.37225,7.43372,4.21789,4.99671,2.44297,8.279,4.74364,9.84005,6.90201,1.56105,2.15922,2.34498,5.2975,2.34498,9.4157,0,4.60134-.59647,8.07365-1.78941,10.41692s-3.19026,4.14717-5.98515,5.41083c-2.7983,1.26366-6.17261,1.89592-10.11954,1.89592-4.37638,0-8.1154-.68168-11.22727-2.04504-3.10846-1.36336-5.24893-3.20901-6.4112-5.53865-1.16567-2.32879-1.74851-5.85052-1.74851-10.56604v-2.72672h15.25259v3.57882c0,3.03944,.19428,5.01376,.57602,5.92209,.38515,.90919,1.14181,1.36336,2.28022,1.36336,1.22021,0,2.07231-.30505,2.5563-.91601,.48058-.6101,.72258-1.89592,.72258-3.85575,0-2.69775-.31357-4.38831-.93731-5.06999-.65441-.68168-3.99124-2.69775-10.01047-6.04991-5.05806-2.84005-8.13926-5.41765-9.24699-7.73281-1.10773-2.3143-1.65989-5.06233-1.65989-8.24407,0-4.51613,.59647-7.84614,1.78941-9.99087,1.19294-2.14388,3.21753-3.79866,6.07036-4.96348,2.85624-1.16397,6.1692-1.7468,9.94912-1.7468,3.74924,0,6.93609,.47632,9.56397,1.42727,2.62788,.9518,4.64565,2.20864,6.04991,3.77054,1.40767,1.56275,2.25977,3.01132,2.5563,4.34571,.29994,1.33524,.4465,3.42288,.4465,6.26293v3.28058Z"/><path class="c" d="M168.42772,1.48551V10.47517h-17.72368V1.48551h17.72368Zm0,12.44066v56.53682h-17.72368V13.92617h17.72368Z"/><path class="c" d="M212.6517,35.27127h-16.23421v-6.51856c0-2.2717-.18405-3.81315-.55216-4.62264-.37152-.80949-1.0532-1.21424-2.04504-1.21424-.99525,0-1.6633,.35533-2.00414,1.06512-.34084,.71065-.51126,2.30067-.51126,4.77176v26.67072c0,2.01692,.25563,3.5294,.76689,4.53743,.51126,1.00889,1.26452,1.51248,2.25977,1.51248,1.16226,0,1.95301-.52489,2.36202-1.57638,.41242-1.05064,.62033-3.03859,.62033-5.9647v-6.73159h15.3378c-.03068,4.51613-.19428,7.90323-.49081,10.16129-.29994,2.25806-1.25088,4.57322-2.85624,6.94461-1.60195,2.37225-3.69811,4.16166-6.28168,5.36823-2.58698,1.20657-5.78065,1.81071-9.58783,1.81071-4.85697,0-8.70505-.8308-11.54425-2.49239-2.8426-1.66159-4.85015-3.99038-6.02946-6.98722-1.17931-2.99598-1.76896-7.24967-1.76896-12.76019v-16.06208c0-4.79988,.48399-8.4213,1.44857-10.86427,.96458-2.44212,3.02666-4.62264,6.17943-6.53987s6.98722-2.87584,11.50335-2.87584c4.48545,0,8.3199,.9518,11.50335,2.85453,3.18004,1.90359,5.29665,4.3031,6.34644,7.20024,1.04979,2.89714,1.57809,7.0017,1.57809,12.31284Z"/></g></svg>