<?xml version="1.0" encoding="UTF-8"?><svg id="a" xmlns="http://www.w3.org/2000/svg" viewBox="0 0 45.02774 45.02776"><defs><style>.b{fill:#415e4e;}</style></defs><path class="b" d="M33.42234,0H11.6054C5.20612,0,0,5.20628,0,11.60546v21.81706c0,6.3991,5.20612,11.60524,11.6054,11.60524h12.0136V27.87916h-6.61954v-6.6074h6.61954v-2.7891c-.04356-.92456-.06132-4.97294,2.68678-7.92754,1.23072-1.32328,3.48954-2.90062,7.26086-2.90062h3.54042v6.60742h-3.54042c-1.67002,0-2.22534,.58522-2.40792,.77742-.8437,.88894-.96388,2.5753-.93976,3.12594l.0128,.1389-.00534,.08742v2.88016h6.88064v6.6074h-6.88064v17.1486h3.19592c6.3993,0,11.6054-5.20614,11.6054-11.60524V11.60546c0-6.39918-5.2061-11.60546-11.6054-11.60546Z"/></svg>