<?xml version="1.0" encoding="UTF-8"?><svg id="a" xmlns="http://www.w3.org/2000/svg" viewBox="0 0 230 75"><defs><style>.b{fill:none;}.c{fill:#465faa;}</style></defs><rect class="b" width="230" height="75"/><g><path class="c" d="M54.92476,2.88395V51.93698h9.69697v12.27273h-25.64394V2.88395h15.94697Z"/><path class="c" d="M83.7884,2.88395v7.99242h-15.75758V2.88395h15.75758Zm0,11.06061v50.26515h-15.75758V13.94456h15.75758Z"/><path class="c" d="M124.05355,13.94456V52.65668c0,5.22727-.1197,8.6053-.36061,10.13258-.23939,1.52727-1.09242,3.14394-2.55606,4.84848-1.46515,1.70455-3.50455,3.00455-6.11667,3.90152-2.61515,.89621-5.90455,1.3447-9.86818,1.3447-4.87424,0-8.78788-.82727-11.74242-2.48106-2.95455-1.65455-4.48333-4.9053-4.58333-9.75379h14.84848c0,2.22273,.80758,3.33333,2.42424,3.33333,1.16061,0,1.93182-.34091,2.31061-1.02424,.37879-.68182,.56818-2.11061,.56818-4.28409v-3.79167c-1.31364,1.19015-2.69545,2.08864-4.14848,2.69621-1.45152,.60758-2.97273,.91136-4.56364,.91136-2.75303,0-5.01818-.5553-6.8-1.66667-1.77879-1.11061-2.99848-2.56894-3.65455-4.375-.65758-1.8053-.98485-4.375-.98485-7.70833V26.48244c0-4.77273,.85758-8.20682,2.57576-10.30303,1.71667-2.09545,4.3303-3.14394,7.84091-3.14394,1.91818,0,3.66818,.39242,5.24697,1.17652,1.57727,.78485,2.98485,1.96136,4.22273,3.52955l1.09848-3.79697h14.24242Zm-15.34091,13.33333c0-2.29773-.13182-3.76212-.39848-4.39394-.26364-.63106-.85152-.94697-1.76061-.94697-.88485,0-1.50909,.35985-1.87576,1.07955-.36515,.7197-.54848,2.14015-.54848,4.26136v16.89394c0,2.24773,.13788,3.70606,.41667,4.375,.27727,.6697,.85758,1.00379,1.74242,1.00379,1.00909,0,1.66667-.40379,1.9697-1.21212,.30303-.80758,.45455-2.63864,.45455-5.49242v-15.56818Z"/><path class="c" d="M144.81112,2.88395v13.79697c1.31212-1.21439,2.73333-2.12652,4.26061-2.73409,1.52879-.60682,3.16364-.91136,4.90606-.91136,2.67576,0,4.95606,.68182,6.83636,2.04545,1.88182,1.36364,3.0303,2.93561,3.44848,4.71591,.41515,1.7803,.62424,5.03182,.62424,9.75379v34.65909h-15.30303V28.83092c0-2.92879-.14545-4.81061-.43636-5.64394-.28939-.83333-.94091-1.25-1.95-1.25-.93485,0-1.56667,.42955-1.89394,1.28788-.32879,.85909-.49242,2.56364-.49242,5.11364v35.87121h-15.30303V2.88395h15.30303Z"/><path class="c" d="M186.2884,7.24001v7.91667h4.12879v7.95455h-4.12879v26.89394c0,3.30833,.1697,5.15152,.51212,5.5303,.33939,.37879,1.76061,.56818,4.26061,.56818v8.10606h-6.17424c-3.48485,0-5.97273-.1447-7.46212-.43561-1.49091-.29015-2.80303-.95909-3.93939-2.00758-1.13636-1.04773-1.84394-2.24697-2.12121-3.59848-.27879-1.35076-.41667-4.52652-.41667-9.52652V23.11122h-3.29545v-7.95455h3.29545V7.24001h15.34091Z"/></g></svg>