<svg id="レイヤー_1" data-name="レイヤー 1" xmlns="http://www.w3.org/2000/svg" xmlns:xlink="http://www.w3.org/1999/xlink" viewBox="0 0 158.74 31.69"><defs><style>.cls-1{fill:url(#名称未設定グラデーション_8);}.cls-2{fill:url(#名称未設定グラデーション_8-2);}.cls-3{fill:url(#名称未設定グラデーション_8-3);}.cls-4{fill:url(#名称未設定グラデーション_8-4);}.cls-5{fill:url(#名称未設定グラデーション_8-5);}.cls-6{fill:url(#名称未設定グラデーション_8-6);}.cls-7{fill:url(#名称未設定グラデーション_8-7);}.cls-8{fill:url(#名称未設定グラデーション_8-8);}.cls-9{fill:url(#名称未設定グラデーション_8-9);}.cls-10{fill:url(#名称未設定グラデーション_8-10);}.cls-11{fill:url(#名称未設定グラデーション_8-11);}.cls-12{fill:url(#名称未設定グラデーション_8-12);}.cls-13{fill:url(#名称未設定グラデーション_8-13);}.cls-14{fill:url(#名称未設定グラデーション_8-14);}.cls-15{fill:url(#名称未設定グラデーション_8-15);}.cls-16{fill:url(#名称未設定グラデーション_8-16);}.cls-17{fill:url(#名称未設定グラデーション_8-17);}.cls-18{fill:url(#名称未設定グラデーション_8-18);}.cls-19{fill:url(#名称未設定グラデーション_8-19);}.cls-20{fill:url(#名称未設定グラデーション_8-20);}</style><linearGradient id="名称未設定グラデーション_8" x1="566.34" y1="410.01" x2="570.21" y2="410.01" gradientUnits="userSpaceOnUse"><stop offset="0" stop-color="#094"/><stop offset="1" stop-color="#000500"/></linearGradient><linearGradient id="名称未設定グラデーション_8-2" x1="602.06" y1="418.78" x2="624.48" y2="418.78" xlink:href="#名称未設定グラデーション_8"/><linearGradient id="名称未設定グラデーション_8-3" x1="571.43" y1="417" x2="602.8" y2="417" xlink:href="#名称未設定グラデーション_8"/><linearGradient id="名称未設定グラデーション_8-4" x1="552.5" y1="417" x2="569.6" y2="417" xlink:href="#名称未設定グラデーション_8"/><linearGradient id="名称未設定グラデーション_8-5" x1="540.05" y1="418.8" x2="551.19" y2="418.8" xlink:href="#名称未設定グラデーション_8"/><linearGradient id="名称未設定グラデーション_8-6" x1="625.36" y1="418.8" x2="636.51" y2="418.8" xlink:href="#名称未設定グラデーション_8"/><linearGradient id="名称未設定グラデーション_8-7" x1="521.58" y1="416.87" x2="539.16" y2="416.87" xlink:href="#名称未設定グラデーション_8"/><linearGradient id="名称未設定グラデーション_8-8" x1="13.62" y1="14.41" x2="4.13" y2="14.41" xlink:href="#名称未設定グラデーション_8"/><linearGradient id="名称未設定グラデーション_8-9" x1="24.37" y1="14.38" x2="18.3" y2="14.5" xlink:href="#名称未設定グラデーション_8"/><linearGradient id="名称未設定グラデーション_8-10" x1="16.36" y1="4.99" x2="13.44" y2="14.93" xlink:href="#名称未設定グラデーション_8"/><linearGradient id="名称未設定グラデーション_8-11" x1="20.81" y1="14.23" x2="16.58" y2="1.13" xlink:href="#名称未設定グラデーション_8"/><linearGradient id="名称未設定グラデーション_8-12" x1="20.92" y1="20.02" x2="31.34" y2="37.29" xlink:href="#名称未設定グラデーション_8"/><linearGradient id="名称未設定グラデーション_8-13" x1="17.39" y1="19.92" x2="22.28" y2="32.66" xlink:href="#名称未設定グラデーション_8"/><linearGradient id="名称未設定グラデーション_8-14" x1="21.86" y1="22.61" x2="21.62" y2="26.42" xlink:href="#名称未設定グラデーション_8"/><linearGradient id="名称未設定グラデーション_8-15" x1="25.45" y1="17.02" x2="26.41" y2="32.8" xlink:href="#名称未設定グラデーション_8"/><linearGradient id="名称未設定グラデーション_8-16" x1="506.53" y1="414.24" x2="506.68" y2="423.07" xlink:href="#名称未設定グラデーション_8"/><linearGradient id="名称未設定グラデーション_8-17" x1="29.68" y1="20.1" x2="22.12" y2="16.7" xlink:href="#名称未設定グラデーション_8"/><linearGradient id="名称未設定グラデーション_8-18" x1="276.05" y1="245.15" x2="282.96" y2="245.15" gradientTransform="translate(288.51 270.17) rotate(180)" xlink:href="#名称未設定グラデーション_8"/><linearGradient id="名称未設定グラデーション_8-19" x1="506.57" y1="409.02" x2="506.57" y2="414.8" xlink:href="#名称未設定グラデーション_8"/><linearGradient id="名称未設定グラデーション_8-20" x1="2.11" y1="13.11" x2="10.55" y2="21.4" xlink:href="#名称未設定グラデーション_8"/></defs><path class="cls-1" d="M567.7,408.16a1.93,1.93,0,1,0,2.42,1.27A1.93,1.93,0,0,0,567.7,408.16Z" transform="translate(-477.77 -398.92)"/><path class="cls-2" d="M622.18,417.51a1.39,1.39,0,0,0-1.17.77l-.41,1c-.18.43-.48.43-.67,0l-2.17-5.07a1.38,1.38,0,0,0-1.17-.78H612c-.46,0-.84.19-.84.42v.45a5.43,5.43,0,0,0-3.43-1.18,5.7,5.7,0,0,0,0,11.4,4.55,4.55,0,0,0,3.43-1.24v.47c0,.21.38.51.84.51h.9a.85.85,0,0,0,.84-.84v-7.16h0a.85.85,0,0,1,.85-.84,1.33,1.33,0,0,1,1.39.78l3.13,7.3a1.32,1.32,0,0,0,1.09.77,1.48,1.48,0,0,0,1.18-.77l1.37-3.19a1.39,1.39,0,0,1,1.17-.77h.5a3.43,3.43,0,0,1,0-2Zm-11,1.43a3.44,3.44,0,1,1,0-.32Z" transform="translate(-477.77 -398.92)"/><path class="cls-3" d="M602.12,409.52h-.93a1.11,1.11,0,0,0-1,.82l-1.84,8.1c-.1.46-.29.46-.42,0l-2.3-8.13a1.18,1.18,0,0,0-1.07-.81H594a1.16,1.16,0,0,0-1.07.81l-2.3,8.13c-.12.44-.31.44-.41,0l-1.43-6.31a1.11,1.11,0,0,0-1-.82H581.4a.85.85,0,0,0-.85.85v2.09a5.45,5.45,0,0,0-3.43-1.18,5.7,5.7,0,0,0,0,11.4,4.55,4.55,0,0,0,3.43-1.24v.47c0,.21.38.51.84.51h.9a.85.85,0,0,0,.84-.84v-9.47h3.42l2.15,9.49a1.11,1.11,0,0,0,1,.82h.86a1.18,1.18,0,0,0,1.08-.81l2.31-8.22c.13-.44.34-.44.46,0l2.33,8.22a1.18,1.18,0,0,0,1.08.81h.93a1.1,1.1,0,0,0,1-.82l3-13.06A.65.65,0,0,0,602.12,409.52Zm-21.56,9.42a3.44,3.44,0,1,1,0-.32Z" transform="translate(-477.77 -398.92)"/><path class="cls-4" d="M568.76,413.38h-.9a.85.85,0,0,0-.84.85v7.16a.85.85,0,0,1-.84.84h-1.13a.85.85,0,0,1-.84-.84v-11a.85.85,0,0,0-.84-.84h-.9a.85.85,0,0,0-.85.84v3a2.52,2.52,0,0,1-.06.8,5.17,5.17,0,0,0-3.36-1.11,5.7,5.7,0,0,0,0,11.4c2.56,0,3.36-1.1,3.36-1.1s.06.12.06.33.38.51.85.51h6.29a.85.85,0,0,0,.84-.84v-9.15A.85.85,0,0,0,568.76,413.38Zm-7.14,5.56a3.44,3.44,0,1,1,0-.32Z" transform="translate(-477.77 -398.92)"/><path class="cls-5" d="M545.56,413.12a5.45,5.45,0,0,0-4,1.63,6.21,6.21,0,0,0-1.34,5.62,6.63,6.63,0,0,0,1.35,2.51,5.65,5.65,0,0,0,4.16,1.6,6.4,6.4,0,0,0,2.84-.58,5.74,5.74,0,0,0,1.43-1.09.68.68,0,0,0-.15-1,2,2,0,0,0-2.17-.17,4.13,4.13,0,0,1-2,.61,3.32,3.32,0,0,1-2.18-.71,2.84,2.84,0,0,1-.79-1.12,3.65,3.65,0,0,1,.9-4.45,3.45,3.45,0,0,1,2.08-.65,3.21,3.21,0,0,1,3.09,2.21h-5.43a3.62,3.62,0,0,0-.08,2h7.2c.47,0,.71-.58.71-.7a5.85,5.85,0,0,0-1.46-4.05A5.64,5.64,0,0,0,545.56,413.12Z" transform="translate(-477.77 -398.92)"/><path class="cls-6" d="M635,414.75a5.6,5.6,0,0,0-4.17-1.63,5.41,5.41,0,0,0-4,1.63,6.18,6.18,0,0,0-1.34,5.62,6.7,6.7,0,0,0,1.34,2.51,5.69,5.69,0,0,0,4.16,1.6,6.44,6.44,0,0,0,2.85-.58,5.59,5.59,0,0,0,1.42-1.09.67.67,0,0,0-.15-1,2,2,0,0,0-2.17-.17,4.13,4.13,0,0,1-2,.61,3.34,3.34,0,0,1-2.18-.71,2.84,2.84,0,0,1-.79-1.12,3.67,3.67,0,0,1,.9-4.45,3.51,3.51,0,0,1,2.09-.65,3.2,3.2,0,0,1,3.08,2.21h-5.43a3.62,3.62,0,0,0-.08,2h7.21c.46,0,.71-.58.71-.7A5.83,5.83,0,0,0,635,414.75Z" transform="translate(-477.77 -398.92)"/><path class="cls-7" d="M539.16,417.51h-.69a1,1,0,0,1-1-.83l-1.07-6.33a1,1,0,0,0-1-.83h-.92a1.26,1.26,0,0,0-1.11.8l-3,8.95c-.15.44-.39.44-.54,0l-3-8.95a1.26,1.26,0,0,0-1.11-.8h-.89a1,1,0,0,0-1,.83l-2.29,13a.68.68,0,0,0,.69.83h.9a1,1,0,0,0,1-.83l1.4-8c.08-.46.27-.47.42,0l2.68,8.05a1.26,1.26,0,0,0,1.11.8h.68a1.26,1.26,0,0,0,1.11-.8l2.7-8.06c.15-.44.34-.42.41,0l.55,3.27a1,1,0,0,0,1,.83h2.91A3.65,3.65,0,0,1,539.16,417.51Z" transform="translate(-477.77 -398.92)"/><polygon class="cls-8" points="7.02 15.9 14.39 15.9 12.34 12.93 3.99 12.93 7.02 15.9"/><polygon class="cls-9" points="25.09 12.93 23.16 15.9 19.95 15.9 22.01 12.93 25.09 12.93"/><polygon class="cls-10" points="17.17 0 17.17 7.99 14.39 15.9 12.34 12.93 17.17 0"/><polygon class="cls-11" points="17.17 0 17.17 7.99 19.95 15.9 22.01 12.93 17.17 0"/><polygon class="cls-12" points="26.75 30.53 20.7 22.55 20.7 18.81 26.75 26.79 26.75 30.53"/><polygon class="cls-13" points="22.68 31.69 16.63 23.71 16.63 19.97 22.68 27.95 22.68 31.69"/><polygon class="cls-14" points="20.7 22.55 20.7 25.33 22.68 27.95 22.68 25.17 20.7 22.55"/><polygon class="cls-15" points="24.76 17.32 24.76 24.17 26.75 26.79 26.75 19.91 24.76 17.32"/><path class="cls-16" d="M506.57,414.88a3.08,3.08,0,0,1-1-.16v2.34l1.92,2.57v-4.91A2.75,2.75,0,0,1,506.57,414.88Z" transform="translate(-477.77 -398.92)"/><polygon class="cls-17" points="24.76 17.32 27.83 18.14 29.75 20.71 26.75 19.91 24.76 17.32"/><polygon class="cls-18" points="8.73 31.03 5.55 31.03 10.2 19.01 12.46 21.21 8.73 31.03"/><path class="cls-19" d="M506.57,409a2.93,2.93,0,1,0,2.92,2.93A2.93,2.93,0,0,0,506.57,409Zm0,4.17a1.25,1.25,0,1,1,1.25-1.24A1.25,1.25,0,0,1,506.57,413.2Z" transform="translate(-477.77 -398.92)"/><polygon class="cls-20" points="10.2 19.01 9.05 21.99 0 12.93 3.99 12.93 10.2 19.01"/></svg>