<svg xmlns="http://www.w3.org/2000/svg" viewBox="0 0 170 118.221"><defs><style>.a{fill:#7edbb8;}.b{fill:#55c299;}.c{fill:#35a67b;}.d{fill:#e7e7e7;}.e{fill:#2c3d50;}.f{fill:#c8cdd2;}.g{fill:#fff;}</style></defs><g transform="translate(73.816 -160.176)"><g transform="translate(51.707 221.797)"><path class="a" d="M12.742,39.114a3.02,3.02,0,0,1-3.079,2.924H3.069A3.011,3.011,0,0,1,0,39.114V6.588A3.013,3.013,0,0,1,3.069,3.654h6.6a3.018,3.018,0,0,1,3.079,2.934V39.114Z" transform="translate(0 14.275)"/><path class="a" d="M18.946,53.262a3.04,3.04,0,0,1-3.079,2.964H9.278A3.032,3.032,0,0,1,6.2,53.262V2.964A3.032,3.032,0,0,1,9.278,0h6.588a3.033,3.033,0,0,1,3.079,2.964Z" transform="translate(25.531)"/><path class="a" d="M15.827,47.249a3.025,3.025,0,0,1-3.074,2.964H6.164A3.025,3.025,0,0,1,3.09,47.249V4.5A3.018,3.018,0,0,1,6.164,1.539h6.593A3.018,3.018,0,0,1,15.832,4.5V47.249Z" transform="translate(12.716 6.012)"/></g><g transform="translate(-73.816 160.176)"><path class="b" d="M9.95,28,30.487,9.109A27.651,27.651,0,0,0,9.95,0C9.4,0,8.843.025,8.3.057L9.95,28Z" transform="translate(17.881 0)"/><path class="c" d="M36.653,21.759A27.949,27.949,0,0,0,29.361,2.871L8.823,21.759Z" transform="translate(19.007 6.238)"/><path class="a" d="M26.181.018A27.475,27.475,0,0,0,11.731,5.11,28.03,28.03,0,0,0,0,27.959H27.83Z" transform="translate(0 0.039)"/><path class="c" d="M36.653,8.824H8.823l16.1,22.835A27.976,27.976,0,0,0,36.653,8.824Z" transform="translate(19.007 19.174)"/><path class="d" d="M27.83,8.824H0A27.945,27.945,0,0,0,7.29,27.706a27.67,27.67,0,0,0,20.544,9.116c.555,0,1.1-.025,1.653-.057a27.561,27.561,0,0,0,14.447-5.105Z" transform="translate(0 19.174)"/></g><g transform="translate(-39.439 195.442)"><path class="e" d="M100.87,2.489A2.468,2.468,0,0,0,98.412,0H2.428A2.472,2.472,0,0,0,0,2.489V60.372H100.87Z"/><path class="f" d="M2.108,12.668H98.763a2.134,2.134,0,0,0,2.123-2.135V3.973H0v6.56A2.121,2.121,0,0,0,2.108,12.668Z" transform="translate(0 57.06)"/><path class="c" d="M8.193,6.642a2.528,2.528,0,1,1-2.535-2.55A2.576,2.576,0,0,1,8.193,6.642Z" transform="translate(44.785 58.769)"/><path class="f" d="M34.9,17.745c-.031,0-.061,0-.061-.061-1.787-1.429-4.093-3.088-4.139-3.933a36.458,36.458,0,0,1-1.176-9.294l-10.965.154L7.6,4.457a36.678,36.678,0,0,1-1.13,9.294c-.046.845-2.367,2.5-4.154,3.933l-.061.061H2.237v.783c-.031.061.107.123.321.215a19.65,19.65,0,0,0,2.718.2H31.895a19.347,19.347,0,0,0,2.688-.2c.214-.092.336-.154.336-.215v-.783Z" transform="translate(31.865 64.011)"/><rect class="g" width="22.007" height="0.814" transform="translate(39.447 69.728)"/><path class="d" d="M0,0H89.035V52.384H0V0Z" transform="translate(5.925 4.225)"/></g></g></svg>