<svg id="own-media" xmlns="http://www.w3.org/2000/svg" viewBox="0 0 167.6 125.87"><defs><style>.cls-1{fill:#7edbb8;}.cls-2{fill:#55c299;}.cls-3{fill:#fff;}.cls-4{fill:none;stroke:#2c3d50;stroke-width:3px;}.cls-5{fill:#35a67b;}.cls-6{fill:#2c3d50;}.cls-7{fill:#c8cdd2;}</style></defs><title>own-media</title><path class="cls-1" d="M110.3,39a8.33,8.33,0,1,0,11,4.22h0a8.33,8.33,0,0,0-11-4.21Z"/><path class="cls-1" d="M125.58,11a3.86,3.86,0,1,0-5.11-1.95A3.86,3.86,0,0,0,125.58,11Z"/><path class="cls-1" d="M157.1,55.27a7.39,7.39,0,0,0-3.6,3.42l-24.43-7.26a16.12,16.12,0,0,0-10.59-20.19h0l4.82-16.33A7.47,7.47,0,1,0,121,.65a7.47,7.47,0,0,0-3.79,9.86h0a7.35,7.35,0,0,0,3.58,3.69l-4.85,16.48a16,16,0,0,0-15,6.16L77.65,22A7.45,7.45,0,1,0,73.81,26a7.1,7.1,0,0,0,2.43-1.74L99.49,39a16.29,16.29,0,0,0-1.82,9.37L51.26,72.17c-.11-.35.14.32,0,0-1.69-3.78,1.22,5.52.64,2.17L98.16,51A17.74,17.74,0,0,0,99,53.18a16.06,16.06,0,0,0,6,7l-16.6,27a7.31,7.31,0,1,0,2.18,1.4l16.67-27-1.07-.66a16.09,16.09,0,0,0,21.75-6.73l.15-.29,24.64,7.33a7.45,7.45,0,1,0,4.37-5.93ZM118.68,9.86a5.83,5.83,0,1,1,7.71,2.93h0A5.85,5.85,0,0,1,118.68,9.86ZM73.15,24.47a5.83,5.83,0,1,1,2.94-7.7v0A5.85,5.85,0,0,1,73.15,24.47Zm14.7,74.92a5.83,5.83,0,1,1,3-7.72,5.82,5.82,0,0,1-3,7.72Zm31-41.25a12.58,12.58,0,1,1,6.37-16.63A12.57,12.57,0,0,1,118.81,58.14Zm43.69,9.27a5.82,5.82,0,1,1,3-7.71,5.83,5.83,0,0,1-3,7.71Z"/><path class="cls-1" d="M158.57,58.58a3.86,3.86,0,1,0,5.09,2v0A3.85,3.85,0,0,0,158.57,58.58Z"/><path class="cls-1" d="M83.9,90.51a3.87,3.87,0,1,0,5.11,2h0a3.86,3.86,0,0,0-5.1-2Z"/><path class="cls-1" d="M69.21,15.62a3.86,3.86,0,1,0,5.1,2,3.86,3.86,0,0,0-5.1-2Z"/><path class="cls-2" d="M18.79,43.94C8.41,43.94,0,50.49,0,58.57c0,6.82,6,12.55,14.15,14.16a.65.65,0,0,1,0,.19A7.24,7.24,0,0,1,9.77,78.5l.18,0h0a1.33,1.33,0,0,1,.28,0,1.33,1.33,0,0,0-.28,0h0l-.25.08a1.18,1.18,0,0,0-.53,1.58,1.2,1.2,0,0,0,1,.66h.07a12.94,12.94,0,0,0,12.74-8c8.35-1.49,14.59-7.29,14.59-14.25C37.59,50.49,29.17,43.94,18.79,43.94Zm-8,36.7a0,0,0,0,1,0,0h0Z"/><path class="cls-2" d="M10,78.44h0Z"/><path class="cls-1" d="M62.67,73.14h0Z"/><path class="cls-1" d="M11.41,46.84c0,8.18,7.34,15,17.16,16.76a15.23,15.23,0,0,0,15,9.37h.08A1.39,1.39,0,0,0,45,71.54a1.37,1.37,0,0,0-1.07-1.3h0a1.87,1.87,0,0,0-.34,0,1.87,1.87,0,0,1,.34,0h0l.21.06A8.53,8.53,0,0,1,39,63.73a1.66,1.66,0,0,1,0-.22c9.58-1.89,16.66-8.63,16.66-16.67,0-9.5-9.9-17.21-22.11-17.21S11.41,37.34,11.41,46.84ZM43,72.83h0Z"/><path class="cls-1" d="M43.93,70.24h0Z"/><rect class="cls-3" x="52.21" y="46.62" width="67.63" height="76.25" rx="5"/><rect class="cls-4" x="50.71" y="45.12" width="70.63" height="79.25" rx="6.5"/><rect class="cls-1" x="61.77" y="59" width="49.36" height="5.65"/><rect class="cls-1" x="61.77" y="72.18" width="45.67" height="5.64"/><rect class="cls-1" x="61.68" y="84.43" width="28.7" height="5.65"/><path class="cls-3" d="M142.33,73.48a.38.38,0,0,1,0,.55l0,0-3.56,3.58a.4.4,0,0,1-.57-.57l3.58-3.58a.38.38,0,0,1,.53,0Z"/><path class="cls-3" d="M140.75,71.88a.43.43,0,0,1,0,.58L137.17,76a.43.43,0,0,1-.56,0,.44.44,0,0,1,0-.59l3.57-3.55A.43.43,0,0,1,140.75,71.88Z"/><path class="cls-3" d="M139.15,70.29a.38.38,0,0,1,0,.55l0,0-3.57,3.57a.4.4,0,0,1-.56,0,.39.39,0,0,1,0-.56l3.57-3.58A.4.4,0,0,1,139.15,70.29Z"/><path class="cls-3" d="M137.56,68.69a.44.44,0,0,1,0,.57L134,72.84a.38.38,0,0,1-.55,0l0,0a.4.4,0,0,1,0-.57L137,68.69A.44.44,0,0,1,137.56,68.69Z"/><path class="cls-3" d="M136,67.11a.38.38,0,0,1,0,.54h0l-3.58,3.58a.43.43,0,0,1-.56,0,.42.42,0,0,1,0-.57l3.56-3.56a.41.41,0,0,1,.57,0Z"/><path class="cls-3" d="M134.37,65.51a.43.43,0,0,1,0,.58l-3.56,3.55a.38.38,0,0,1-.54,0l0,0a.38.38,0,0,1,0-.55l0,0,3.57-3.56a.39.39,0,0,1,.54,0Z"/><path class="cls-5" d="M148.5,67.25a1.09,1.09,0,0,1,0,1.53l-3.16,3.14a1.07,1.07,0,0,1-1.51,0h0l-8-7.93a1.07,1.07,0,0,1,0-1.5l3.17-3.18a1.1,1.1,0,0,1,1.51,0Z"/><path class="cls-6" d="M128,70.42l9.46,9.43-32.92,32.93L95,103.33Z"/><path class="cls-7" d="M142.61,73.2,141,71.6,139.42,70l-1.6-1.6-1.59-1.6-1.59-1.6-.77-.74-4.67,4.67.76.76,1.6,1.61,1.6,1.58,1.59,1.61,1.61,1.58,1.58,1.6.73.72,4.67-4.67Zm-11.8-3.56a.38.38,0,0,1-.54,0l0,0a.4.4,0,0,1,0-.55l0,0,3.57-3.55a.38.38,0,0,1,.55,0v0a.4.4,0,0,1,0,.57Zm1.58,1.6a.4.4,0,0,1-.56-.56l3.56-3.57a.41.41,0,0,1,.57,0h0a.39.39,0,0,1,0,.55h0Zm1.6,1.6a.38.38,0,0,1-.55,0l0,0a.39.39,0,0,1,0-.56L137,68.7a.4.4,0,0,1,.57.57Zm1.59,1.6a.4.4,0,0,1-.56-.56l3.57-3.58a.4.4,0,0,1,.56,0,.38.38,0,0,1,0,.55l0,0Zm1.6,1.6a.42.42,0,0,1-.57,0,.43.43,0,0,1,0-.58l3.57-3.56a.4.4,0,0,1,.57.57Zm5.16-2-3.56,3.57a.42.42,0,0,1-.57,0,.4.4,0,0,1,0-.57l3.57-3.58a.39.39,0,0,1,.54,0v0a.38.38,0,0,1,0,.55h0Z"/><path class="cls-7" d="M93.79,104.57l9.45,9.45-8,1.93-3.3-3.41Z"/><path class="cls-5" d="M95.31,116l-4.45,1,1-4.46Z"/></svg>