<svg xmlns="http://www.w3.org/2000/svg" viewBox="0 0 144 124.377"><defs><style>.a{fill:#7edbb8;}.b,.e{fill:#2c3d50;}.c{fill:#fff;}.d,.e{stroke:none;}</style></defs><g transform="translate(419.53 -151.119)"><path class="a" d="M54.837,28.287,52.1,27.9a19.034,19.034,0,0,0-1.157-2.779L52.605,22.9a4.133,4.133,0,0,0-.271-4.818,24.492,24.492,0,0,0-2.759-2.755,4.132,4.132,0,0,0-4.815-.271l-2.215,1.663a19.841,19.841,0,0,0-2.784-1.157l-.386-2.738a3.759,3.759,0,0,0-2.951-3.151,24.266,24.266,0,0,0-5.186,0,3.768,3.768,0,0,0-2.953,3.152L27.9,15.561a20.391,20.391,0,0,0-2.788,1.157L22.9,15.055a4.129,4.129,0,0,0-4.812.271,24.394,24.394,0,0,0-2.758,2.755,4.134,4.134,0,0,0-.273,4.818l1.661,2.217A19.073,19.073,0,0,0,15.561,27.9l-2.737.391a3.766,3.766,0,0,0-3.152,2.949,23.338,23.338,0,0,0-.142,2.589,24.417,24.417,0,0,0,.137,2.594,3.771,3.771,0,0,0,3.153,2.955l2.737.39a19.22,19.22,0,0,0,1.155,2.786l-1.661,2.214a4.13,4.13,0,0,0,.271,4.814,24.313,24.313,0,0,0,2.758,2.756,4.126,4.126,0,0,0,4.813.267l2.211-1.663A19.924,19.924,0,0,0,27.893,52.1s.174,1.226.388,2.738a3.768,3.768,0,0,0,2.953,3.154,25.041,25.041,0,0,0,5.186,0,3.762,3.762,0,0,0,2.951-3.153l.386-2.738a19.3,19.3,0,0,0,2.784-1.159L44.756,52.6a4.131,4.131,0,0,0,4.817-.266,24.412,24.412,0,0,0,2.758-2.758,4.129,4.129,0,0,0,.271-4.814L50.939,42.55A19.159,19.159,0,0,0,52.1,39.764l2.738-.39a3.77,3.77,0,0,0,3.153-2.955,24.722,24.722,0,0,0,.136-2.594,24.438,24.438,0,0,0-.137-2.589A3.76,3.76,0,0,0,54.837,28.287ZM33.829,44.643A10.814,10.814,0,1,1,44.643,33.829,10.814,10.814,0,0,1,33.829,44.643Z" transform="translate(-333.653 217.372)"/><g transform="matrix(-0.995, -0.105, 0.105, -0.995, -288.157, 179.896)"><path class="a" d="M0,1.128,4.143,0c.125.749.287,1.47.486,2.21A22.708,22.708,0,0,0,23.125,18.7l-1.1,4.148A26.949,26.949,0,0,1,.5,3.32Q.2,2.224,0,1.128Z" transform="translate(0 3.658)"/><path class="a" d="M0,1.138,4.162,0A15.07,15.07,0,0,0,4.6,2.238,15.584,15.584,0,0,0,18.057,13.646l-1.105,4.171A19.849,19.849,0,0,1,.462,3.348,18.041,18.041,0,0,1,0,1.138Z" transform="translate(6.908 1.771)"/><path class="a" d="M0,1.138,4.222,0a8.745,8.745,0,0,0,.31,2.247,8.942,8.942,0,0,0,8.776,6.585L12.18,13.068A13.219,13.219,0,0,1,.407,3.385,14.175,14.175,0,0,1,0,1.138Z" transform="translate(13.401 0)"/></g><g transform="matrix(0.985, -0.174, 0.174, 0.985, -419.53, 233.659)"><path class="a" d="M14.571,15.493l.461-.461.461-.461c.254-.256-.18-1.435-.971-2.635l-2.028-3.08A6.124,6.124,0,0,0,9.7,6.4L8.339,6.111,2.225,0,0,2.227,6.108,8.339,6.4,9.7a6.135,6.135,0,0,0,2.46,2.793l3.081,2.031C13.138,15.314,14.317,15.748,14.571,15.493Z" transform="translate(24.275 24.275)"/><path class="a" d="M1.36,7.916,10.444,17l1.134,1.132c.026.028.051.042.076.069l1.5-1.5L2.44,5.984a.664.664,0,1,1,.938-.938L14.089,15.763l1.671-1.675L5.046,3.375a.662.662,0,0,1,.935-.938L16.7,13.157l1.5-1.5c-.023-.026-.039-.054-.062-.079l-1.191-1.192L7.92,1.36A4.637,4.637,0,1,0,1.36,7.916Z" transform="translate(0 0)"/><path class="a" d="M39.891,8.686c-.109-1.433-1.375-1.711-2.391-.7l-3.549,3.55a2.122,2.122,0,0,1-3,0l-2.3-2.3a2.135,2.135,0,0,1,0-3.014l3.669-3.666c1.016-1.016.759-2.328-.668-2.5A9.373,9.373,0,0,0,21.19,8.535a9.572,9.572,0,0,0,.117,2.561L1.614,30.791A5.5,5.5,0,1,0,9.4,38.572S23.552,24.418,29.284,18.679A9.36,9.36,0,0,0,39.891,8.686ZM7.364,36.88a2.867,2.867,0,1,1,0-4.054A2.87,2.87,0,0,1,7.364,36.88Z" transform="translate(0.104 0.025)"/></g><g transform="translate(-374.217 185.124)"><path class="b" d="M0,29.332,1.822,92.724H49.286V29.332Z" transform="translate(2.412 -23.543)"/><g class="c" transform="translate(0 0)"><path class="d" d="M 53.54374313354492 87.60804748535156 L 4.427666664123535 87.60804748535156 C 2.904279232025146 87.60804748535156 1.458754181861877 87.11830139160156 0.3573541641235352 86.22901153564453 C -0.823020875453949 85.27597045898438 -1.499995827674866 83.92412567138672 -1.499995827674866 82.52011108398438 L -1.499995827674866 73.62200164794922 L -1.499995827674866 70.12013244628906 L -1.499995827674866 11.75198650360107 L -1.499995827674866 8.250123977661133 L -1.499995827674866 3.587923765182495 C -1.499995827674866 2.187836170196533 -0.823395848274231 0.837573766708374 0.3563291430473328 -0.1166512593626976 C 1.459191679954529 -1.008713722229004 2.905091762542725 -1.500001311302185 4.427666664123535 -1.500001311302185 L 53.54374313354492 -1.500001311302185 C 55.06636810302734 -1.500001311302185 56.51224136352539 -1.008701205253601 57.61500549316406 -0.11658875644207 C 58.79451751708984 0.8376112580299377 59.47100448608398 2.187848806381226 59.47100448608398 3.587923765182495 L 59.47100448608398 8.250123977661133 L 59.47100448608398 11.75198650360107 L 59.47100448608398 70.12013244628906 L 59.47100448608398 73.62200164794922 L 59.47100448608398 82.52011108398438 C 59.47100448608398 83.92411041259766 58.79412841796875 85.27593994140625 57.61394119262695 86.22895812988281 C 56.51263046264648 87.11827087402344 55.06714248657227 87.60804748535156 53.54374313354492 87.60804748535156 Z M 9.290589332580566 68.70187377929688 L 48.67972183227539 68.70187377929688 L 48.73469924926758 11.55006122589111 L 9.562599182128906 11.55006122589111 L 9.290589332580566 68.70187377929688 Z"/><path class="e" d="M 4.427665710449219 0 C 1.989849090576172 0 -3.814697265625e-06 1.602928161621094 -3.814697265625e-06 3.587913513183594 L -3.814697265625e-06 8.250114440917969 L -3.814697265625e-06 11.75198364257812 L -3.814697265625e-06 70.12014770507812 L -3.814697265625e-06 73.62199401855469 L -3.814697265625e-06 82.52010345458984 C -3.814697265625e-06 84.51439666748047 1.989849090576172 86.10804748535156 4.427665710449219 86.10804748535156 L 53.54374313354492 86.10804748535156 C 55.98157119750977 86.10804748535156 57.97101211547852 84.51439666748047 57.97101211547852 82.52010345458984 L 57.97101211547852 73.62199401855469 L 57.97101211547852 70.12014770507812 L 57.97101211547852 11.75198364257812 L 57.97101211547852 8.250114440917969 L 57.97101211547852 3.587913513183594 C 57.97101211547852 1.602928161621094 55.98166275024414 0 53.54374313354492 0 L 4.427665710449219 0 M 50.17827606201172 70.20186614990234 L 7.783424377441406 70.20186614990234 L 8.069705963134766 10.050048828125 L 50.23612976074219 10.050048828125 L 50.17827606201172 70.20186614990234 M 4.427665710449219 -3 L 53.54374313354492 -3 C 55.40863800048828 -3 57.18955612182617 -2.390151977539062 58.55841064453125 -1.28277587890625 C 60.09165191650391 -0.04242706298828125 60.97101211547852 1.732864379882812 60.97101211547852 3.587913513183594 L 60.97101211547852 8.250114440917969 L 60.97101211547852 11.75198364257812 L 60.97101211547852 70.12014770507812 L 60.97101211547852 73.62199401855469 L 60.97101211547852 82.52010345458984 C 60.97101211547852 84.37960052490234 60.09088897705078 86.15676879882812 58.55633163452148 87.39595794677734 C 57.18910598754883 88.50002288818359 55.40893173217773 89.10804748535156 53.54374313354492 89.10804748535156 L 4.427665710449219 89.10804748535156 C 2.562530517578125 89.10804748535156 0.7823295593261719 88.50006103515625 -0.5849609375 87.39608001708984 C -2.119762420654297 86.1568603515625 -3.000003814697266 84.379638671875 -3.000003814697266 82.52010345458984 L -3.000003814697266 73.62199401855469 L -3.000003814697266 70.12014770507812 L -3.000003814697266 11.75198364257812 L -3.000003814697266 8.250114440917969 L -3.000003814697266 3.587913513183594 C -3.000003814697266 1.732810974121094 -2.120494842529297 -0.04253387451171875 -0.5870018005371094 -1.282913208007812 C 0.7819442749023438 -2.390190124511719 2.562862396240234 -3 4.427665710449219 -3 Z M 47.23324203491211 13.050048828125 L 11.05545425415039 13.050048828125 L 10.7977294921875 67.20186614990234 L 47.18115997314453 67.20186614990234 L 47.23324203491211 13.050048828125 Z"/></g><path class="b" d="M250.673,730.333a4.212,4.212,0,1,1-4.214-4.215A4.223,4.223,0,0,1,250.673,730.333Z" transform="translate(-217.475 -652.564)"/></g></g></svg>